<?xml version="1.0" encoding="UTF-8"?>
<svg width="50px" height="50px" viewBox="0 0 50 50" version="1.1" xmlns="http://www.w3.org/2000/svg" xmlns:xlink="http://www.w3.org/1999/xlink">
    <!-- Generator: Sketch 43.1 (39012) - http://www.bohemiancoding.com/sketch -->
    <title>Page 1 Copy 2</title>
    <desc>Created with Sketch.</desc>
    <defs></defs>
    <g id="Welcome" stroke="none" stroke-width="1" fill="none" fill-rule="evenodd">
        <g id="Mobile-main-320px-Copy" transform="translate(-20.000000, -20.000000)">
            <g id="Group-18-Copy" transform="translate(20.000000, 12.000000)">
                <g id="Page-1-Copy-2" transform="translate(0.000000, 8.000000)">
                    <g id="Group-3" fill="#A87F53">
                        <path d="M42.6776667,7.32233333 C52.441,17.0856667 52.441,32.914 42.6776667,42.6773333 C32.9143333,52.4406667 17.086,52.4406667 7.32266667,42.6773333 C-2.44066667,32.914 -2.44066667,17.0856667 7.32266667,7.32233333 C17.086,-2.441 32.9143333,-2.441 42.6776667,7.32233333" id="Fill-1"></path>
                    </g>
                    <path d="M17.6470588,23.0779412 C17.6470588,11.8829412 24.6120588,7.35294118 30.5953922,7.35294118 C30.6187255,9.44794118 30.5953922,15.6329412 30.5953922,15.6329412 L24.1987255,16.2529412 L24.1987255,23.0779412 L24.1987255,29.9029412 L30.5953922,30.5229412 C30.5953922,30.5229412 30.6187255,36.7079412 30.5953922,38.8029412 C24.6120588,38.8029412 17.6470588,34.2729412 17.6470588,23.0779412 Z" id="Stroke-4" stroke="#FFFFFF" stroke-linejoin="bevel" transform="translate(24.126411, 23.077941) rotate(45.000000) translate(-24.126411, -23.077941) "></path>
                </g>
            </g>
        </g>
    </g>
</svg>