<?xml version="1.0" encoding="UTF-8"?>
<svg width="51px" height="21px" viewBox="0 0 51 21" version="1.1" xmlns="http://www.w3.org/2000/svg" xmlns:xlink="http://www.w3.org/1999/xlink">
    <!-- Generator: Sketch 43.1 (39012) - http://www.bohemiancoding.com/sketch -->
    <title>Group 4 Copy 2</title>
    <desc>Created with Sketch.</desc>
    <defs></defs>
    <g id="Welcome" stroke="none" stroke-width="1" fill="none" fill-rule="evenodd" opacity="0.799999952">
        <g id="main-page-1440px-2nd-visit" transform="translate(-672.000000, -5040.000000)" fill="#9B9B9B">
            <g id="Group-17-Copy-2" transform="translate(252.000000, 4802.000000)">
                <g id="Group-4-Copy-2" transform="translate(420.000000, 237.000000)">
                    <path d="M19.0785,17.7998 L17.1915,17.7998 L17.1915,16.7078 C16.4765,17.5278 15.8705,17.9418 15.2095,17.9418 C14.6295,17.9418 14.2275,17.6678 14.0255,17.1738 C13.9025,16.8728 13.8165,16.4038 13.8165,15.7148 L13.8165,7.7718 L15.7025,7.7718 L15.7025,15.2178 L15.7025,15.9128 C15.7465,16.1918 15.8645,16.2938 16.1045,16.2938 C16.4655,16.2938 16.7925,15.9798 17.1915,15.4168 L17.1915,7.7718 L19.0785,7.7718 L19.0785,17.7998 Z" id="Fill-1"></path>
                    <path d="M10.5394,14.8211 C10.6384,15.8141 10.3304,16.3071 9.7454,16.3071 C9.1594,16.3071 8.8514,15.8141 8.9504,14.8211 L8.9504,10.8491 C8.8514,9.8561 9.1594,9.3911 9.7454,9.3911 C10.3304,9.3911 10.6394,9.8561 10.5404,10.8491 L10.5394,14.8211 Z M12.4264,11.0481 C12.4264,9.9761 12.2104,9.1711 11.8304,8.6651 C11.3274,7.9791 10.5394,7.6981 9.7454,7.6981 C8.8464,7.6981 8.1614,7.9791 7.6604,8.6651 C7.2734,9.1711 7.0664,9.9851 7.0664,11.0571 L7.0644,14.6221 C7.0644,15.6881 7.2484,16.4241 7.6354,16.9261 C8.1374,17.6101 8.9504,17.9721 9.7454,17.9721 C10.5394,17.9721 11.3674,17.6101 11.8704,16.9261 C12.2504,16.4241 12.4264,15.6881 12.4264,14.6221 L12.4264,11.0481 Z" id="Fill-3"></path>
                    <path d="M4.9791,12.3388 L4.9791,17.7998 L2.9931,17.7998 L2.9931,12.3388 C2.9931,12.3388 0.9351,5.6438 0.5111,4.3958 L2.5961,4.3958 L3.9901,9.6258 L5.3761,4.3958 L7.4611,4.3958 L4.9791,12.3388 Z" id="Fill-5"></path>
                    <path d="M38.4823,9.3664 C38.1863,9.3664 37.8473,9.5224 37.5463,9.8194 L37.5443,15.8404 C37.8453,16.1414 38.1863,16.2934 38.4823,16.2934 C39.0003,16.2934 39.2343,15.9134 39.2343,14.9204 L39.2343,10.6504 C39.2343,9.6584 39.0003,9.3664 38.4823,9.3664" id="Fill-7"></path>
                    <path d="M45.8873,10.5598 C45.8873,9.6418 45.6503,9.3668 45.0543,9.3668 C44.4533,9.3668 44.1993,9.6198 44.1993,10.5478 L44.1993,11.6458 L45.8873,11.6438 L45.8873,10.5598 Z" id="Fill-9"></path>
                    <g id="Group-13" transform="translate(20.000000, 0.759700)">
                        <path d="M25.0709,15.5341 C25.5139,15.5341 25.7709,15.2931 25.8739,14.8131 C25.8909,14.7151 25.8879,14.2861 25.8879,13.5651 L27.7739,13.5651 L27.7739,13.8461 C27.7739,14.4261 27.7259,14.8351 27.7099,15.0151 C27.6489,15.4141 27.5079,15.7741 27.2899,16.0931 C26.7929,16.8131 26.0549,17.1681 25.1159,17.1681 C24.1749,17.1681 23.4589,16.8301 22.9399,16.1521 C22.5579,15.6551 22.3129,14.9171 22.3129,13.8631 L22.3129,10.3881 C22.3129,9.3271 22.5359,8.5071 22.9179,8.0051 C23.4379,7.3261 24.1529,6.9671 25.0709,6.9671 C25.9729,6.9671 26.6889,7.3261 27.1919,8.0051 C27.5679,8.5071 27.7769,9.2831 27.7769,10.3431 L27.7769,12.3731 L24.1989,12.3731 L24.1989,14.1561 C24.1929,15.0731 24.4539,15.5341 25.0709,15.5341 L25.0709,15.5341 Z M21.1209,14.0611 C21.1209,14.9791 21.0429,15.6271 20.9229,16.0471 C20.6829,16.7851 20.1599,17.1681 19.4439,17.1681 C18.8049,17.1681 18.1499,16.7831 17.5489,16.0401 L17.5469,17.0401 L15.7599,17.0401 L15.7599,3.7351 L17.5469,3.7351 L17.5449,8.0731 C18.1259,7.3581 18.7829,6.9521 19.4439,6.9521 C20.1599,6.9521 20.6409,7.3651 20.8809,8.1081 C21.0009,8.5071 21.1209,9.1501 21.1209,10.0901 L21.1209,14.0611 Z M14.2699,17.0401 L12.3839,17.0401 L12.3839,15.9481 C11.6689,16.7681 11.0619,17.1821 10.4009,17.1821 C9.8219,17.1821 9.4189,16.9081 9.2169,16.4141 C9.0949,16.1131 9.0079,15.6441 9.0079,14.9551 L9.0079,7.1111 L10.8939,7.1111 L10.8939,14.4581 L10.8939,15.1541 C10.9379,15.4321 11.0569,15.5341 11.2969,15.5341 C11.6579,15.5341 11.9839,15.2201 12.3839,14.6571 L12.3839,7.1111 L14.2699,7.1111 L14.2699,17.0401 Z M7.1209,17.0401 L5.1349,17.0401 L5.1349,5.6211 L3.0499,5.6211 L3.0499,3.7371 L9.3059,3.7351 L9.3059,5.6211 L7.1209,5.6211 L7.1209,17.0401 Z M29.9619,4.7191 C29.9619,4.7191 29.6729,2.6851 28.7839,1.7891 C27.6559,0.6131 26.3919,0.6081 25.8129,0.5391 C21.6639,0.2401 15.4399,0.2401 15.4399,0.2401 L15.4269,0.2401 C15.4269,0.2401 9.2039,0.2401 5.0549,0.5391 C4.4749,0.6081 3.2119,0.6131 2.0839,1.7891 C1.1949,2.6851 0.9059,4.7191 0.9059,4.7191 C0.9059,4.7191 0.6089,7.1071 0.6089,9.4961 L0.6089,11.7351 C0.6089,14.1241 0.9059,16.5121 0.9059,16.5121 C0.9059,16.5121 1.1949,18.5461 2.0839,19.4421 C3.2119,20.6171 4.6929,20.5801 5.3529,20.7031 C7.7249,20.9301 15.4339,21.0001 15.4339,21.0001 C15.4339,21.0001 21.6639,20.9911 25.8129,20.6921 C26.3919,20.6231 27.6559,20.6171 28.7839,19.4421 C29.6729,18.5461 29.9619,16.5121 29.9619,16.5121 C29.9619,16.5121 30.2589,14.1241 30.2589,11.7351 L30.2589,9.4961 C30.2589,7.1071 29.9619,4.7191 29.9619,4.7191 L29.9619,4.7191 Z" id="Fill-11"></path>
                    </g>
                </g>
            </g>
        </g>
    </g>
</svg>